<?xml version="1.0" encoding="utf-8"?>
<!-- Generator: Adobe Illustrator 25.3.1, SVG Export Plug-In . SVG Version: 6.00 Build 0)  -->
<svg version="1.1" id="Layer_1" xmlns="http://www.w3.org/2000/svg" xmlns:xlink="http://www.w3.org/1999/xlink" x="0px" y="0px"
	 viewBox="0 0 445.4 199.9" style="enable-background:new 0 0 445.4 199.9;" xml:space="preserve">
<style type="text/css">
	.st0{fill:#A4CC6B;}
	.st1{fill:#E6E7E7;}
	.st2{fill:#FFC62A;}
	.st3{fill:#BB490A;}
	.st4{fill:#8ED3D7;}
	.st5{fill:#648457;}
	.st6{fill:#A0BA8A;}
	.st7{fill:#6C7DAD;}
	.st8{fill:#806E40;}
	.st9{fill:#333333;}
	.st10{fill:#3C3C3C;}
	.st11{fill:#565656;}
	.st12{fill:#5A764E;}
	.st13{fill:#3D341E;}
	.st14{fill:#8AA530;}
</style>
<rect x="-169.4" y="-46.4" class="st0" width="34.7" height="34.7"/>
<rect x="-169.4" y="-3.5" class="st1" width="34.7" height="34.7"/>
<rect x="-126.2" y="82.1" class="st2" width="34.7" height="34.7"/>
<rect x="-169.4" y="39.3" class="st3" width="34.7" height="34.7"/>
<rect x="-169.4" y="82.1" class="st4" width="34.7" height="34.7"/>
<rect x="-124.4" y="126.1" class="st5" width="34.7" height="34.7"/>
<rect x="-167.6" y="126.1" class="st6" width="34.7" height="34.7"/>
<rect x="-126.2" y="39.3" class="st7" width="34.7" height="34.7"/>
<rect x="-126.2" y="-3.5" class="st8" width="34.7" height="34.7"/>
<rect x="-107" y="206.5" class="st8" width="34.7" height="34.7"/>
<rect x="-126.2" y="-46.4" class="st9" width="34.7" height="34.7"/>
<rect x="-171.9" y="-91.7" class="st10" width="34.7" height="34.7"/>
<rect x="-128.6" y="-91.7" class="st11" width="34.7" height="34.7"/>
<rect x="-171.9" y="-143" class="st12" width="34.7" height="34.7"/>
<rect x="-128.6" y="-143" class="st11" width="34.7" height="34.7"/>
<g>
	<g>
		<path class="st13" d="M289.2,167.1l-2.6-0.3c-0.3-1.4-0.6-2.9-1.1-4.3l1.4-0.6c0.5-0.2,0.6-0.6,0.5-1.1l-2.6-6
			c-0.2-0.5-0.6-0.6-1.1-0.5l-2.3,1c-1-1.1-2.1-2.3-3.2-3.2l1-1.3c0.3-0.3,0.2-0.8-0.2-1.1l-5.2-3.9c-0.3-0.3-0.8-0.2-1.1,0.2
			l-1.4,2.1c-1.4-0.5-2.9-1-4.3-1.1l0.2-1.6c0-0.5-0.3-0.8-0.6-1l-6.4-0.8c-0.5,0-0.8,0.3-1,0.6l-0.3,2.6c-1.4,0.3-2.9,0.6-4.3,1.1
			l-0.6-1.4c-0.2-0.5-0.6-0.6-1.1-0.5l-6,2.6c-0.5,0.2-0.6,0.6-0.5,1.1l1,2.3c-1.1,1-2.3,2.1-3.2,3.2l-1.3-1
			c-0.3-0.3-0.8-0.2-1.1,0.2l-3.9,5.2c-0.3,0.3-0.2,0.8,0.2,1.1l2.1,1.4c-0.5,1.4-1,2.9-1.1,4.3l-1.6-0.2c-0.5,0-0.8,0.3-1,0.6
			l-0.8,6.4c0,0.5,0.3,0.8,0.6,1l2.6,0.3c0.3,1.4,0.6,2.9,1.1,4.3l-1.4,0.6c-0.5,0.2-0.6,0.6-0.5,1.1l2.6,6c0.2,0.5,0.6,0.6,1.1,0.5
			l2.3-1c1,1.1,2.1,2.3,3.2,3.2l-1,1.3c-0.3,0.3-0.2,0.8,0.2,1.1l5.2,3.9c0.3,0.3,0.8,0.2,1.1-0.2l1.4-2.1c1.4,0.5,2.9,1,4.3,1.1
			l-0.2,1.6c0,0.5,0.3,0.8,0.6,1l6.4,0.8c0.5,0,0.8-0.3,1-0.6l0.3-2.6c1.4-0.3,2.9-0.6,4.3-1.1l0.6,1.4c0.2,0.5,0.6,0.6,1.1,0.5
			l6-2.6c0.5-0.2,0.6-0.6,0.5-1.1l-1-2.3c1.1-1,2.3-2.1,3.2-3.2l1.3,1c0.3,0.3,0.8,0.2,1.1-0.2l3.9-5.2c0.3-0.3,0.2-0.8-0.2-1.1
			l-1.9-1.4c0.5-1.4,1-2.9,1.1-4.3l1.6,0.2c0.5,0,0.8-0.3,1-0.6l0.8-6.4C290,167.6,289.7,167.3,289.2,167.1L289.2,167.1z M263,185.2
			c-7.9,0-14.2-6.3-14.2-14.2s6.3-14.2,14.2-14.2s14.2,6.3,14.2,14.2C277,178.9,270.7,185.2,263,185.2L263,185.2z"/>
		<path class="st13" d="M270.3,171c0,4.2-3.4,7.6-7.6,7.6s-7.6-3.4-7.6-7.6s3.4-7.6,7.6-7.6S270.3,166.8,270.3,171L270.3,171z"/>
	</g>
</g>
<g>
	<g>
		<path class="st13" d="M420.2,167.1l-2.6-0.3c-0.3-1.4-0.6-2.9-1.1-4.3l1.4-0.6c0.5-0.2,0.6-0.6,0.5-1.1l-2.6-6
			c-0.2-0.5-0.6-0.6-1.1-0.5l-2.3,1c-1-1.1-2.1-2.3-3.2-3.2l1-1.3c0.3-0.3,0.2-0.8-0.2-1.1l-5.2-3.9c-0.3-0.3-0.8-0.2-1.1,0.2
			l-1.4,2.1c-1.4-0.5-2.9-1-4.3-1.1l0.2-1.6c0-0.5-0.3-0.8-0.6-1l-6.4-0.8c-0.5,0-0.8,0.3-1,0.6l-0.3,2.6c-1.4,0.3-2.9,0.6-4.3,1.1
			l-0.6-1.4c-0.2-0.5-0.6-0.6-1.1-0.5l-6,2.6c-0.5,0.2-0.6,0.6-0.5,1.1l1,2.3c-1.1,1-2.3,2.1-3.2,3.2l-1.3-1
			c-0.3-0.3-0.8-0.2-1.1,0.2l-3.9,5.2c-0.3,0.3-0.2,0.8,0.2,1.1l2.1,1.4c-0.5,1.4-1,2.9-1.1,4.3l-1.6-0.2c-0.5,0-0.8,0.3-1,0.6
			l-0.8,6.4c0,0.5,0.3,0.8,0.6,1l2.6,0.3c0.3,1.4,0.6,2.9,1.1,4.3l-1.4,0.6c-0.5,0.2-0.6,0.6-0.5,1.1l2.6,6c0.2,0.5,0.6,0.6,1.1,0.5
			l2.3-1c1,1.1,2.1,2.3,3.2,3.2l-1,1.3c-0.3,0.3-0.2,0.8,0.2,1.1l5.2,3.9c0.3,0.3,0.8,0.2,1.1-0.2l1.4-2.1c1.4,0.5,2.9,1,4.3,1.1
			l-0.2,1.6c0,0.5,0.3,0.8,0.6,1l6.4,0.8c0.5,0,0.8-0.3,1-0.6l0.3-2.6c1.4-0.3,2.9-0.6,4.3-1.1l0.6,1.4c0.2,0.5,0.6,0.6,1.1,0.5
			l6-2.6c0.5-0.2,0.6-0.6,0.5-1.1l-1-2.3c1.1-1,2.3-2.1,3.2-3.2l1.3,1c0.3,0.3,0.8,0.2,1.1-0.2l3.9-5.2c0.3-0.3,0.2-0.8-0.2-1.1
			l-2.1-1.4c0.5-1.4,1-2.9,1.1-4.3l1.6,0.2c0.5,0,0.8-0.3,1-0.6l0.8-6.4C421,167.6,420.7,167.3,420.2,167.1L420.2,167.1z M394,185.2
			c-7.9,0-14.2-6.3-14.2-14.2s6.3-14.2,14.2-14.2c7.9,0,14.2,6.3,14.2,14.2S401.9,185.2,394,185.2L394,185.2z"/>
		<path class="st13" d="M401.3,171c0,4.2-3.4,7.6-7.6,7.6s-7.6-3.4-7.6-7.6s3.4-7.6,7.6-7.6S401.3,166.8,401.3,171L401.3,171z"/>
	</g>
</g>
<path class="st13" d="M427.1,84.6v43.9h-8.7L402.3,108l18.5-23.4h-13.6l-15.8,20.8V84.6h-11.6v43.9H368c3.1-2.7,4.9-6.4,5.1-10.4
	c0-16-23.6-12.2-23.6-20.5c0-3.1,2.2-4.4,4.9-4.4c3.1,0,5.3,1.8,5.4,4.9h12.5C372,89,365,83.9,354.6,83.9c-10,0-17.4,4.9-17.4,14
	c0,17,23.8,12.1,23.8,21c0,2.9-2.2,4.5-5.6,4.5c-3.3,0-5.6-1.8-6-5.4H337c0.1,4.6,2,8.1,5,10.6h-20.8c6.4-4.3,10.5-11.5,10.5-20.4
	c0-14.3-10.7-24.3-24.3-24.3c-13.4,0-24.5,10-24.5,24.3c0,8.9,4.2,16.1,10.7,20.4h-17.2v-44h-11.6v43.9h-8.5L240.2,108l18.5-23.4
	h-13.6l-15.8,20.8V84.6h-11.6v79.5c0,0.9,0.7,1.5,1.6,1.5h11c0,0,7.9-26,32.6-26s31.8,26,31.8,26h67.1c0,0,7.9-26,32.6-26
	s31.8,26,31.8,26h3.2l0.1-0.2c0,0.1,0,0.1,0,0.2h7.4c0.9,0,1.6-0.7,1.6-1.5V84.6H427.1z M229.3,128.6v-17.5l13,17.5H229.3z
	 M307.5,122c-7.8,0-12.7-5.4-12.7-13.8c0-8.3,4.9-13.8,12.7-13.8c7.6,0,12.5,5.3,12.5,13.8C320,116.6,315.1,122,307.5,122z
	 M391.4,111.1l13,17.5h-13V111.1z"/>
<g>
	<path class="st13" d="M194.5,182c-0.7-0.5-0.7-1.4-0.4-2l7.1-9.4c0.5-0.7,1.4-0.7,2-0.4l0,0c0.9-2.5,1.6-5.3,2.2-8l-1.8-0.2
		c-0.7-0.2-1.4-0.9-1.3-1.6l1.3-11.8c0.2-0.7,0.9-1.4,1.6-1.3l0,0c-0.5-2.7-1.3-5.4-2.2-8l-1.6,0.7c-0.7,0.4-1.6,0-2-0.7l-4.7-10.9
		c-0.4-0.7,0-1.6,0.7-2l0,0c-1.8-2.2-3.8-4-5.8-5.8l-1.1,1.4c-0.5,0.7-1.4,0.7-2,0.4l-9.4-7.1c-0.7-0.5-0.7-1.4-0.4-2l0,0
		c-2.5-0.9-5.3-1.6-8-2.2l-0.2,1.8c-0.2,0.7-0.9,1.4-1.6,1.3l-11.8-1.3c-0.7-0.2-1.4-0.9-1.3-1.6l0,0c-2.7,0.5-5.4,1.3-8,2.2
		l0.7,1.6c0.4,0.7,0,1.6-0.7,2l-10.9,4.7c-0.7,0.4-1.6,0-2-0.7l0,0c-2.2,1.8-4,3.8-5.8,5.8l1.4,1.1c0.7,0.5,0.7,1.4,0.4,2l-6.7,9.4
		c-0.5,0.7-1.4,0.7-2,0.4l0,0c-0.9,2.5-1.6,5.3-2.2,8l1.8,0.2c0.7,0.2,1.4,0.9,1.3,1.6l-1.3,11.8c-0.2,0.7-0.9,1.4-1.6,1.3l0,0
		c0.5,2.7,1.3,5.4,2.2,8l1.6-0.7c0.7-0.4,1.6,0,2,0.7l4.7,10.9c0.4,0.7,0,1.6-0.7,2l0,0c1.8,2.2,3.8,4,5.8,5.8l1.1-1.4
		c0.5-0.7,1.4-0.7,2-0.4l9.4,7.1c0.7,0.5,0.7,1.4,0.4,2l0,0c2.5,0.9,5.3,1.6,8,2.2l0.2-1.8c0.2-0.7,0.9-1.4,1.6-1.3l11.8,1.3
		c0.7,0.2,1.4,0.9,1.3,1.6l0,0c2.7-0.5,5.4-1.3,8-2.2l-0.7-1.6c-0.4-0.7,0-1.6,0.7-2l10.9-4.7c0.7-0.4,1.6,0,2,0.7l0,0
		c2.2-1.8,4-3.8,5.8-5.8L194.5,182z M187.8,155c0,14.3-11.6,25.9-25.9,25.9c-14.3,0-25.9-11.6-25.9-25.9s11.6-25.9,25.9-25.9
		S187.8,140.7,187.8,155L187.8,155z"/>
	<path class="st13" d="M175.7,155c0,7.6-6.2,13.9-13.9,13.9c-7.8,0-13.9-6.2-13.9-13.9c0-7.8,6.2-13.9,13.9-13.9
		S175.7,147.4,175.7,155L175.7,155z"/>
</g>
<g>
	<path class="st13" d="M57,186.6c-0.5-0.4-0.5-1.1-0.2-1.4l5.1-6.9c0.4-0.5,1.1-0.5,1.4-0.2l0,0c0.7-1.8,1.3-3.8,1.4-5.8l-1.3-0.2
		c-0.5,0-1.1-0.5-0.9-1.3l0.9-8.5c0-0.5,0.5-1.1,1.3-0.9l0,0c-0.4-2-0.9-4-1.6-5.8l-1.3,0.5c-0.5,0.2-1.3,0-1.4-0.5l-3.4-8
		c-0.2-0.5,0-1.3,0.5-1.4l0,0c-1.3-1.6-2.7-2.9-4.3-4.2l-0.7,1.1c0,0.2-0.7,0.2-1.1,0l-7.1-5.3c-0.5-0.4-0.5-1.1-0.2-1.4l0,0
		c-1.8-0.7-3.8-1.3-5.8-1.4l-0.2,1.1c0,0.5-0.5,1.1-1.3,0.9l-8.5-0.9c-0.5,0-1.1-0.5-0.9-1.3l0,0c-2,0.4-4,0.9-5.8,1.6l0.5,1.3
		c0.2,0.5,0,1.3-0.5,1.4l-8,3.4c-0.5,0.2-1.3,0-1.4-0.5l0,0c-1.6,1.3-2.9,2.7-4.2,4.3l1.1,0.7c0.5,0.4,0.5,1.1,0.2,1.4l-5.1,6.9
		c-0.4,0.5-1.1,0.5-1.4,0.2l0,0c-0.7,1.8-1.3,3.8-1.4,5.8l1.3,0.2c0.5,0,1.1,0.5,0.9,1.3l-0.9,8.5c0,0.5-0.5,1.1-1.3,0.9l0,0
		c0.4,2,0.9,4,1.6,5.8l1.3-0.5c0.5-0.2,1.3,0,1.4,0.5l3.4,8c0.2,0.5,0,1.3-0.5,1.4l0,0c1.3,1.6,2.7,2.9,4.3,4.2l0.7-1.1
		c0.4-0.5,1.1-0.5,1.4-0.2l6.9,5.1c0.5,0.4,0.5,1.1,0.2,1.4l0,0c1.8,0.7,3.8,1.3,5.8,1.4l0.2-1.3c0-0.5,0.5-1.1,1.3-0.9l8.5,0.9
		c0.5,0,1.1,0.5,0.9,1.3l0,0c2-0.4,4-0.9,5.8-1.6l-0.5-1.3c-0.2-0.5,0-1.3,0.5-1.4l8-3.4c0.5-0.2,1.3,0,1.4,0.5l0,0
		c1.6-1.3,2.9-2.7,4.2-4.3L57,186.6z M52,166.8c0,10.5-8.5,19-19,19s-19-8.5-19-19s8.5-19,19-19S52,156.3,52,166.8L52,166.8z"/>
	<path class="st13" d="M43.3,166.8c0,5.6-4.5,10.1-10.1,10.1S23,172.4,23,166.8c0-5.6,4.5-10.1,10.1-10.1
		C38.7,156.5,43.3,161.2,43.3,166.8L43.3,166.8z"/>
</g>
<path class="st5" d="M196.5,118.1c1.3-0.9-0.4-4.7-0.7-5.6c-0.7-2.2-1.8-4.2-2.4-6.3c-0.9-4.3-3.4-6.5-8-6.5c-2.5,0-3.4-1.3-3.8-3.8
	c-1.3-9.2-2.7-18.5-4.2-27.7c-0.5-3.8-0.7-4,2.7-5.3c2-0.7,1.6-2,1.6-3.4c0-0.7-0.2-1.6-0.5-2.2h-80.8c-0.4,0.5-0.7,1.4-1.1,2.9
	c-0.2,0.5-0.4,0.9-0.4,1.4c-2.9,11.5-6,23.3-8.9,35.1c-0.4,1.1-1.4,1.4-3.4,1.8c-2.7,0.4-5.4,0.5-8,0.7c-9.1,0.5-18.3,1.3-27.2,3.3
	c-8.2,1.6-16.5,2.9-24.1,6.5c-2.4,1.1-4.2,2.9-5.1,5.4c-1.6,4.7-1.8,9.8-2.9,14.7c-0.4,1.3,0,2.2,0.9,2.5c4-1.4,8.3-2.2,12.7-2.2
	c20.5,0,37.1,16.1,38,36.4h40.9c-0.7-3.4-1.1-6.9-1.1-10.5c0-27.7,22.5-50,50-50c8.2,0,15.9,2,22.8,5.4c1.6,0.7,3.3,1.6,4.7,2.7
	c2.2,1.4,4.2,3.1,6.2,4.7C195.4,118.3,196,118.4,196.5,118.1L196.5,118.1z M32.6,113.5c0.9,0.4,1.3,1.3,1.1,2.2c-0.5,2-1.3,4-2,6
	c-0.4,0.9-0.9,1.6-2,1.6c-1.3-0.2-2.2-0.9-1.8-2.4c0.5-2.4,1.4-4.5,2.5-6.7C31,113.5,31.7,113,32.6,113.5L32.6,113.5z M42.4,112.8
	c1.1,0.5,1.3,1.4,0.9,2.4c-0.7,2.2-1.6,4.3-2.5,6.5c-0.4,0.9-1.1,1.6-2.4,1.6c-1.4-0.2-2.2-1.1-1.8-2.5c0.7-2.5,1.6-4.9,3.1-7.1
	C40.4,112.8,41.3,112.3,42.4,112.8L42.4,112.8z M52,113c0.9,0.4,1.6,1.3,1.4,2.4c-0.9,2.7-2.4,5.4-3.6,8c-0.5,0.7-1.4,0.9-2.4,0.5
	c-1.1-0.5-1.3-1.4-1.1-2.4c0.5-2.7,2-5.1,3.3-7.6C49.8,112.6,50.9,112.6,52,113L52,113z M89.3,123.3c0.2,1.6-1.1,2-2.4,2.4
	c-6.5,1.4-12.7,4-18.7,7.1c-0.9,0.5-1.8,1.1-2.9,1.4c-1.4,0.5-2.5-0.2-3.1-1.4s0.7-2,1.4-2.4c4-2,8-4.2,12-6
	c3.4-1.6,7.1-2.4,11.1-2.9C87.8,121.9,89.1,121.7,89.3,123.3L89.3,123.3z M134.8,69.7c0,5.3,0,10.5,0,15.8l-0.2,15.2
	c0,2.5-0.7,4.5-3.1,5.8c-6.9,3.8-12.3,9.1-17,15.4c-1.4,2-2.5,4.3-3.6,6.7c-1.1,2.2-2.5,3.1-4.9,2.9c-2.4-0.2-4.9,0-7.2,0
	c-2.2,0-3.3-1.1-3.3-3.3c0.2-8.9-0.2-17.8,0.7-26.6c0.7-6.9,3.1-13.6,4.7-20.5c0.9-4,2.2-8,2.9-12c0.5-2.5,2-3.6,4.5-3.6
	c7.4,0,15,0,22.5,0C134,65.4,134.8,66.3,134.8,69.7L134.8,69.7z M174.6,94.9c0.5,3.8,0.2,4.2-3.6,4.2c-4.3,0-8.5,0-12.9,0
	c-4.5,0-8.9,0-13.4,0c-2.4,0-3.1-0.9-3.1-3.1c0.2-8.7,0.2-17.6,0.4-26.3c0-3.3,0.7-3.8,4-4c6.9,0,13.6-0.2,20.5,0
	c3.3,0,4,0.7,4.3,3.8C172.1,78,173.3,86.6,174.6,94.9L174.6,94.9z"/>
<path class="st13" d="M44.9,101.4c-3.3,0.7-6.3,1.4-10.1,2.5c-0.2-0.4-0.2-0.4-0.2-0.9c0-5.3,0-10.5,0-15.8c0-2.4,1.4-4,3.1-4.7
	c0.9-0.5,1.8-1.1,1.8-1.1s0-1.1,0-1.6c0-5.3,0-10.5,0-15.8c0-2.4-0.4-4.7-1.4-7.1c-0.5-1.1-1.1-2-2.2-2.5c-0.5-0.2-1.1-0.5-1.3-0.9
	v-6.3c1.6-0.7,3.3,0,4.5,1.1c2.5,2,4.3,4.5,4.3,8c0,3.8,0,7.4,0,11.2c0,4,0,7.8,0,11.8c0,0.7,0,1.8,0,1.8s0.7,0.2,1.1,0.4
	c1.4,0.5,1.8,2,1.8,3.6c0,5.3,0,10.7,0,15.9C46,101.2,45.4,101.2,44.9,101.4L44.9,101.4z"/>
<g>
	<g>
		<path class="st13" d="M217.7,10.2h7.2l5.1,11.1l5.1-11.1h7.2l-9.1,17.7v8.8h-6.4v-8.8L217.7,10.2z"/>
		<path class="st13" d="M244.8,10.2h7.6l7.4,18.3l7.4-18.3h7.6v26.3h-6.4V20.7l-5.8,15.8h-5.3l-5.8-15.8v15.8H245V10.2H244.8z"/>
		<path class="st13" d="M289.7,27.2h-3.9v9.5h-6.4V10.2h10.3c6.4,0,9.7,3.7,9.7,8.6C299.2,23.1,296.3,27.2,289.7,27.2z M289.1,21.9
			c2.5,0,3.7-1.4,3.7-3.3s-1.2-3.3-3.7-3.3h-3.5v6.6H289.1z"/>
		<path class="st13" d="M319.1,31.8h-9.7l-1.6,4.7H301l9.5-26.3h7.4l9.5,26.3h-6.8L319.1,31.8z M307.6,5c0-1.6,1.2-2.7,2.7-2.7
			S313,3.5,313,5c0,1.6-1.2,2.7-2.7,2.7C308.8,7.9,307.6,6.5,307.6,5z M314.2,17.2l-3.3,9.7h6.4L314.2,17.2z M315.2,5
			c0-1.6,1.2-2.7,2.7-2.7s2.7,1.2,2.7,2.7c0,1.6-1.2,2.7-2.7,2.7C316.4,7.9,315.2,6.5,315.2,5z"/>
		<path class="st13" d="M341.1,10.2c6.4,0,9.7,3.7,9.7,8.4c0,3.3-1.8,6.4-5.8,7.6l6,10.5h-7.2l-5.4-9.9h-1.6v9.9h-6.4V10.2H341.1z
			 M340.7,15.5h-3.9v6.6h3.9c2.3,0,3.5-1.2,3.5-3.3C344.2,16.8,343,15.5,340.7,15.5z"/>
		<path class="st13" d="M354.7,10.2h6.4v26.3h-6.4V10.2z"/>
		<path class="st13" d="M375.3,36.9c-5.6,0-10.1-2.7-10.3-8.2h6.8c0.2,1.9,1.6,2.9,3.3,2.9c1.9,0,3.1-1,3.1-2.5
			c0-4.9-13.2-2.3-13-11.7c0-5.1,4.1-7.8,9.5-7.8c5.6,0,9.5,2.9,9.9,7.8h-7c-0.2-1.8-1.4-2.7-3.1-2.7c-1.6,0-2.7,0.8-2.7,2.3
			c0,4.7,13,2.5,13,11.3C384.9,33.2,381.5,36.9,375.3,36.9z"/>
		<path class="st13" d="M387.4,10.2h20.4v5.1h-7v21.2h-6.4V15.3h-7V10.2L387.4,10.2z"/>
		<path class="st13" d="M423.4,36.9c-7.4,0-13.6-5.6-13.6-13.4c0-8,6-13.4,13.6-13.4s13.4,5.6,13.4,13.4
			C437,31.2,431,36.9,423.4,36.9z M423.4,30.9c4.3,0,7-3.1,7-7.6c0-4.7-2.7-7.6-7-7.6s-7,2.9-7,7.6
			C416.6,27.9,419.1,30.9,423.4,30.9z M417,5c0-1.6,1.2-2.7,2.7-2.7c1.6,0,2.7,1.2,2.7,2.7c0,1.6-1.2,2.7-2.7,2.7
			C418.1,7.9,417,6.5,417,5z M424.3,5c0-1.6,1.2-2.7,2.7-2.7c1.6,0,2.7,1.2,2.7,2.7c0,1.6-1.2,2.7-2.7,2.7
			C425.7,7.9,424.3,6.5,424.3,5z"/>
	</g>
</g>
<path class="st5" d="M432.8,41.5L432.8,41.5c0,0,0-0.1-0.2-0.1v-0.1l-0.2-0.1c0,0,0-0.1-0.2-0.1L432,41c0,0-0.2,0-0.2-0.1
	c-0.2,0-0.2-0.1-0.4-0.1c0,0,0,0-0.2,0s-0.4-0.1-0.5-0.1c0,0,0,0-0.2,0s-0.4,0-0.5,0h-0.2c-0.2,0-0.4,0-0.4,0c-0.2,0-0.2,0-0.4,0
	l0,0H228.8l0,0c-0.2,0-0.2,0-0.4,0s-0.4,0-0.4,0h-0.2c-0.2,0-0.4,0-0.4,0h-0.2c-0.2,0-0.4,0-0.4,0.1h-0.2c-0.2,0-0.2,0.1-0.4,0.1
	c0,0-0.2,0-0.2,0.1l-0.2,0.1l-0.2,0.1l-0.2,0.1v0.1c0,0,0,0.1-0.2,0.1l0,0l-11.4,27.6v0.1c0,0,0,0,0,0.1l0,0l0,0
	c0,3.4,5.6,6.4,13.9,7.9l7.1,0.8c1.6,0.1,3.1,0.1,4.7,0.1c9.6,0,17.8-1.8,22.3-4.5c4.5,2.7,12.9,4.5,22.3,4.5
	c9.6,0,17.8-1.8,22.3-4.5c4.5,2.7,12.9,4.5,22.3,4.5c9.6,0,17.8-1.8,22.3-4.5c4.5,2.7,12.9,4.5,22.3,4.5s17.8-1.8,22.3-4.5
	c4.5,2.7,12.9,4.5,22.3,4.5c4.3,0,12-1,12-1c1.9-0.3,4.9-1.1,5.1-1.1c5.4-1.6,8.9-4.1,8.9-6.7C444.2,69.4,432.8,41.5,432.8,41.5z
	 M303.1,69.1c0,0.1,0,0.1,0,0.3c0,3.3-8.3,6-18.7,6c-10.3,0-18.7-2.7-18.7-6l6.5-26.1h33.2L303.1,69.1z M373.7,75.2
	c-10.3,0-18.7-2.7-18.8-6c0,0,0,0,0-0.1L352.7,43h33.2l6.5,26.1C392.4,72.7,383.9,75.2,373.7,75.2z"/>
<image style="overflow:visible;enable-background:new    ;" width="513" height="422" xlink:href="41F04DA6.jpg"  transform="matrix(0.9979 0 0 0.9979 555.1546 -44.0187)">
</image>
<rect x="-261" y="185.8" class="st14" width="227" height="139.5"/>
<rect x="-261" y="330.9" class="st13" width="227" height="139.5"/>
</svg>
